<svg width="1200" height="400" viewBox="0 0 1200 400" fill="none" xmlns="http://www.w3.org/2000/svg">
<rect width="1200" height="400" rx="20" fill="#E5E6F4"/>
<g filter="url(#filter0_f_737_10390)">
<path d="M239.807 359.076C279.872 368.431 321.644 331.308 334.897 274.545L356.273 182.998C357.599 177.316 354.079 171.65 348.396 170.323C342.714 168.997 337.048 172.517 335.721 178.2L314.346 269.746C304.137 313.469 272.196 344.966 244.606 338.524C238.923 337.198 233.257 340.718 231.931 346.401C230.604 352.083 234.125 357.749 239.807 359.076Z" fill="#DDD9EF"/>
<path d="M559.321 115.966C530.897 89.3807 483.429 79.2941 436.098 93.6314C388.778 107.971 354.875 142.716 345.996 180.606C374.42 207.192 421.899 217.281 469.219 202.941C516.54 188.601 550.442 153.856 559.321 115.966Z" fill="#DDD9EF"/>
<path d="M183.345 28.1842C220.603 16.9347 267.63 28.912 303.718 62.7267C339.795 96.539 354.805 142.705 345.988 180.609C308.729 191.858 261.692 179.879 225.615 146.066C189.538 112.254 174.527 66.0882 183.345 28.1842Z" fill="#DDD9EF"/>
</g>
<g filter="url(#filter1_n_737_10390)">
<rect x="142" y="60" width="170" height="170" rx="10" transform="rotate(15 142 60)" fill="#B3B1EC"/>
<ellipse cx="188.254" cy="217.299" rx="52.4355" ry="4.96774" transform="rotate(15 188.254 217.299)" fill="#827FDB"/>
<g clip-path="url(#clip0_737_10390)">
<path fill-rule="evenodd" clip-rule="evenodd" d="M249.613 131.843L175.268 111.922C172.941 111.298 170.549 112.679 169.926 115.006L154.66 171.978L237.432 194.157L252.697 137.185C253.321 134.858 251.94 132.466 249.613 131.843Z" fill="#526178"/>
<path fill-rule="evenodd" clip-rule="evenodd" d="M238.988 141.344L181.263 125.877C179.457 125.392 177.931 125.229 177.855 125.511L176.002 132.427L240.27 149.647L242.122 142.732C242.198 142.449 240.795 141.828 238.988 141.344Z" fill="#46556C"/>
<path fill-rule="evenodd" clip-rule="evenodd" d="M211.467 146.041L176.002 136.539C174.892 136.241 173.931 136.229 173.855 136.511L172.002 143.427L211.487 154.006L213.339 147.091C213.415 146.809 212.577 146.339 211.467 146.041Z" fill="#46556C"/>
<path fill-rule="evenodd" clip-rule="evenodd" d="M200.856 156.002L172.594 148.429C171.709 148.192 170.931 148.229 170.855 148.511L169.002 155.427L200.468 163.858L202.321 156.943C202.396 156.66 201.74 156.239 200.856 156.002Z" fill="#46556C"/>
<path d="M237.43 194.156L154.659 171.978L142.844 180.591C140.684 182.167 141.31 185.546 143.896 186.239L239.624 211.889C242.207 212.581 244.441 209.971 243.358 207.524L237.43 194.156Z" fill="#D1DBE9"/>
<path d="M208.243 190.19L181.914 183.136C181.141 182.928 180.314 183.082 179.665 183.554L175.484 186.604C174.746 187.141 174.96 188.294 175.844 188.53L210.808 197.899C211.689 198.135 212.453 197.245 212.083 196.411L209.987 191.679C209.661 190.945 209.022 190.399 208.248 190.192L208.243 190.19Z" fill="#E4E7EB"/>
</g>
</g>
<rect x="211" y="246.471" width="175.281" height="63.4375" rx="20.5" transform="rotate(-7.6955 211 246.471)" fill="#6541C7"/>
<path d="M241.788 278.643L244.601 276.727C245.758 278.572 247.619 279.6 249.882 279.294C252.121 278.992 253.273 278.045 253.082 276.628C252.912 275.371 252.183 274.794 250.407 274.569L247.588 274.205C245.007 273.879 242.099 272.852 241.642 269.47C241.179 266.042 243.804 263.592 247.529 263.089C251.14 262.601 253.918 264.39 255.271 266.651L252.504 268.561C251.523 267.157 249.979 266.063 247.967 266.334C245.933 266.609 244.996 267.597 245.185 268.991C245.367 270.34 246.466 270.726 247.982 270.917L250.68 271.251C253.283 271.574 256.161 272.721 256.624 276.149C257.088 279.577 254.251 282.009 250.32 282.54C246.481 283.059 243.462 281.558 241.788 278.643ZM263.23 280.446L259.711 280.922L257.172 262.135L261.949 261.49L269.256 275.094L272.691 260.038L277.467 259.393L280.006 278.179L276.486 278.655L274.744 265.765L271.641 279.31L268.076 279.791L261.489 267.556L263.23 280.446ZM299.508 275.544L295.852 276.038L293.365 271.068L286.691 271.97L285.613 277.422L281.956 277.916L285.954 258.246L290.433 257.641L299.508 275.544ZM288.715 261.806L287.376 268.596L291.809 267.997L288.715 261.806ZM316.326 273.272L312.349 273.809L308.006 266.809L304.029 267.346L305.036 274.797L301.448 275.282L298.909 256.495L306.771 255.433C310.451 254.936 313.483 256.365 314.002 260.204C314.366 262.901 313.246 264.774 311.317 265.826L316.326 273.272ZM306.969 258.618L302.923 259.164L303.603 264.193L307.648 263.646C309.614 263.38 310.63 262.289 310.414 260.689C310.197 259.089 308.934 258.352 306.969 258.618ZM314.238 254.424L329.276 252.392L329.718 255.66L324.004 256.432L326.101 271.951L322.513 272.436L320.416 256.917L314.679 257.692L314.238 254.424Z" fill="white"/>
<g clip-path="url(#clip1_737_10390)">
<path d="M357.364 268.235C355.01 268.553 352.813 266.191 352.363 262.856L351.636 257.479C351.591 257.145 351.825 256.839 352.158 256.793C352.492 256.748 352.798 256.982 352.844 257.315L353.57 262.693C353.917 265.262 355.58 267.247 357.201 267.028C357.535 266.982 357.841 267.216 357.886 267.55C357.931 267.883 357.698 268.19 357.364 268.235Z" fill="#B0FF70"/>
<path d="M340.331 252.513C342.11 251.141 344.893 250.822 347.534 251.905C350.175 252.989 351.933 255.171 352.235 257.397C350.456 258.769 347.673 259.088 345.032 258.005C342.392 256.922 340.634 254.739 340.331 252.513Z" fill="#B1FF71"/>
<path d="M362.413 249.53C360.334 248.679 357.566 249.11 355.307 250.855C353.048 252.601 351.933 255.171 352.232 257.398C354.311 258.248 357.08 257.818 359.338 256.072C361.596 254.327 362.712 251.757 362.413 249.53Z" fill="#B1FF71"/>
</g>
<g filter="url(#filter2_n_737_10390)">
<rect x="958.328" y="90" width="149" height="149" rx="8.05882" transform="rotate(4.35927 958.328 90)" fill="url(#paint0_linear_737_10390)"/>
<path d="M1037.87 206.029C1028.49 205.395 1022.06 194.173 1023.24 180.477L1025.14 158.389C1025.26 157.017 1026.43 155.982 1027.76 156.072C1029.09 156.162 1030.07 157.342 1029.95 158.714L1028.05 180.802C1027.14 191.352 1031.84 200.633 1038.3 201.07C1039.63 201.16 1040.61 202.341 1040.49 203.712C1040.37 205.083 1039.2 206.118 1037.87 206.029Z" fill="#8BCAF7"/>
<path d="M984.602 129.119C992.815 124.937 1003.96 125.845 1013.26 132.361C1022.55 138.877 1027.37 149.174 1026.49 158.492C1018.27 162.675 1007.12 161.767 997.831 155.251C988.54 148.735 983.714 138.438 984.602 129.119Z" fill="#8BCAF7"/>
<path d="M1074.22 135.249C1066.91 130.128 1055.71 129.686 1045.28 135.01C1034.85 140.334 1028.11 149.931 1027.21 159.249C1034.53 164.37 1045.72 164.813 1056.15 159.489C1066.58 154.165 1073.32 144.567 1074.22 135.249Z" fill="#8BCAF7"/>
<ellipse cx="1022.28" cy="218.32" rx="48" ry="4.5" transform="rotate(4.35927 1022.28 218.32)" fill="#282828" fill-opacity="0.2"/>
</g>
<g filter="url(#filter3_n_737_10390)">
<rect x="884.539" y="208.543" width="120.719" height="120.719" rx="60.3594" fill="url(#paint1_linear_737_10390)"/>
<ellipse cx="946.836" cy="297.323" rx="26.8363" ry="3.19086" fill="#282828" fill-opacity="0.34"/>
</g>
<path d="M922.172 241.382C936.265 239.478 965.595 243.744 970.166 276.045" stroke="white" stroke-width="4.32279"/>
<path d="M962.93 273.38L970.847 277.951L975.037 270.694" stroke="white" stroke-width="4.32279"/>
<g clip-path="url(#clip2_737_10390)">
<g filter="url(#filter4_n_737_10390)">
<rect x="-54.8047" y="221.369" width="120.719" height="120.719" rx="60.3594" transform="rotate(-11.1619 -54.8047 221.369)" fill="url(#paint2_linear_737_10390)"/>
<ellipse cx="21.8017" cy="297.243" rx="26.8363" ry="3.19086" transform="rotate(-11.4799 21.8017 297.243)" fill="#282828" fill-opacity="0.34"/>
</g>
<path d="M-7.5556 289.016C6.64004 288.156 34.5892 278.293 32.8207 245.718" stroke="white" stroke-width="4.32279"/>
<path d="M26.2344 249.734L33.1168 243.717L38.6324 250.026" stroke="white" stroke-width="4.32279"/>
</g>
<g clip-path="url(#clip3_737_10390)">
<g filter="url(#filter5_n_737_10390)">
<rect x="1060" y="219.038" width="170" height="170" rx="10" transform="rotate(-12.9295 1060 219.038)" fill="#B3D6FF"/>
<ellipse cx="1174.54" cy="336.351" rx="28.3908" ry="4.96774" transform="rotate(-12.9295 1174.54 336.351)" fill="#3C81E7"/>
<g clip-path="url(#clip4_737_10390)">
<path d="M1170.25 319.413C1194.75 313.791 1210.04 289.378 1204.42 264.886C1198.8 240.395 1174.39 225.098 1149.89 230.721C1125.4 236.343 1110.1 260.756 1115.73 285.248C1121.35 309.74 1145.76 325.036 1170.25 319.413Z" fill="#2F81F9"/>
<path d="M1128.32 254.16C1131.9 255.471 1134.6 257.807 1135.41 261.528C1136.01 264.235 1137.67 265.872 1139.64 267.285C1141.17 268.384 1142.65 269.521 1144.03 270.796C1144.88 271.58 1145.24 272.605 1145.53 273.687C1146.12 275.864 1147.73 276.812 1149.97 276.355C1150.54 276.236 1151.12 276.1 1151.68 275.967C1153.43 275.56 1153.76 274.716 1152.67 273.434C1151.15 271.63 1151.19 266.973 1152.88 265.312C1154.16 264.055 1156.04 264.301 1157.63 263.782C1159.48 263.179 1160.94 263.548 1161.83 265.459C1162.04 265.909 1162.57 266.361 1163.11 265.987C1163.64 265.616 1164.58 265.511 1164.47 264.533C1164.4 263.953 1164.32 263.367 1164.16 262.806C1163.7 261.138 1163.85 259.611 1164.94 258.2C1165.81 257.081 1166.11 255.873 1165.92 254.375C1165.68 252.564 1166.73 251.086 1168.32 250.301C1169.42 249.753 1169.91 249.096 1169.9 247.934C1169.87 246.787 1170.44 246.11 1171.57 245.893C1171.89 245.833 1172.21 245.752 1172.51 245.637C1173.31 245.331 1174.18 245.065 1173.88 243.891C1173.58 242.717 1172.63 242.793 1171.84 243.019C1169.75 243.624 1167.89 243.399 1166.15 242.023C1165.59 241.578 1165.35 241.302 1165.52 240.461C1166.03 238.072 1165.19 237.352 1162.78 237.844C1162.33 237.935 1161.88 238.008 1161.45 238.149C1160.8 238.359 1159.84 238.118 1159.62 238.962C1159.37 239.861 1159.93 240.667 1160.66 241.116C1161.72 241.772 1161.99 242.415 1161.14 243.432C1160.39 244.339 1160.97 245.312 1161.15 246.235C1161.37 247.408 1161.47 248.471 1160.04 248.934C1158.83 249.328 1157.7 249.396 1157.14 247.924C1156.75 246.916 1155.93 246.814 1155.06 246.897C1154.35 246.963 1153.65 247.163 1152.95 247.316C1151.46 247.643 1149.97 248.142 1149.48 245.87C1149.01 243.723 1150.48 243.517 1151.9 243.174C1152.47 243.038 1153.06 242.939 1153.61 242.748C1154.71 242.365 1155.6 241.82 1155.44 240.395C1155.31 239.194 1156 238.586 1157.12 238.423C1158.21 238.265 1158.54 237.7 1158.22 236.653C1157.78 235.201 1158.52 234.621 1159.84 234.116C1164.36 232.376 1168.38 233.755 1172.17 236.056C1174.74 237.613 1177.47 238.77 1180.3 239.611C1182.66 240.315 1184.93 239.186 1187.19 238.541C1180.87 233.858 1173.38 230.817 1165.42 229.876C1161.2 231.671 1156.66 232.281 1152.23 233.216C1150.24 233.634 1149.02 234.743 1148.38 236.242C1147.88 237.406 1146.92 238.509 1147.12 240.007C1147.28 241.24 1146.29 241.586 1145.26 241.825C1144.21 242.069 1143.24 242.094 1142.82 240.928C1142.3 239.459 1141.31 239.381 1140.03 239.708C1138.33 240.14 1136.62 240.526 1134.9 240.875C1133.49 241.165 1132.22 241.031 1131.53 239.623C1126.6 243.602 1122.58 248.558 1119.69 254.124C1119.69 254.205 1119.68 254.28 1119.68 254.364C1122.55 253.804 1125.4 253.091 1128.32 254.16Z" fill="#7BD58F"/>
<path d="M1190.28 282.05C1188.64 282.255 1186.51 280.908 1186.03 279.373C1184.76 275.243 1181.4 273.277 1177.25 274.225C1174.71 274.808 1171.92 274.917 1169.68 276.081C1166 277.996 1165.07 273.449 1162.32 273.504C1161.85 273.512 1161.38 273.098 1161.18 272.55C1161.06 272.25 1160.95 271.902 1160.73 271.702C1160.02 271.065 1159.17 270.828 1158.52 271.672C1157.67 272.762 1158.12 274.34 1157.26 275.482C1157.13 275.654 1157.49 275.904 1157.76 275.952C1160.19 276.388 1161.79 278.747 1164.52 278.734C1165.45 278.731 1166.57 279.412 1167.63 279.722C1168.33 279.929 1168.6 280.288 1168.17 281.009C1166.4 283.958 1166.56 287.016 1167.61 290.165C1168.18 291.872 1169.83 293.032 1171.67 292.777C1173.3 292.549 1175.62 293.84 1175.99 295.324C1176.74 298.357 1177.39 301.416 1178.09 304.463C1178.33 305.487 1178.08 306.257 1177.08 306.711C1176.29 307.071 1175.48 307.418 1175.84 308.559C1176.2 309.731 1177.23 309.423 1177.97 309.372C1180.59 309.196 1182.17 307.251 1183.57 305.418C1187.08 300.81 1190.05 295.823 1193 290.845C1194.03 289.113 1194.99 287.174 1194.53 284.967C1194.12 283 1192.37 281.787 1190.28 282.047L1190.28 282.05Z" fill="#7BD58F"/>
</g>
</g>
</g>
<path d="M920.312 273.632C920.193 272.845 919.852 272.223 919.29 271.767C918.728 271.31 918.023 271.079 917.176 271.072C916.429 271.079 915.774 271.267 915.212 271.638C914.656 272.008 914.226 272.551 913.922 273.265C913.617 273.973 913.465 274.823 913.465 275.815C913.465 276.828 913.617 277.688 913.922 278.395C914.232 279.103 914.662 279.639 915.212 280.003C915.767 280.367 916.416 280.552 917.157 280.559C917.984 280.552 918.682 280.334 919.25 279.904C919.819 279.467 920.173 278.865 920.312 278.098L923.329 278.118C923.217 279.024 922.896 279.864 922.366 280.638C921.837 281.412 921.123 282.034 920.223 282.504C919.323 282.967 918.288 283.198 917.117 283.198C915.827 283.198 914.676 282.907 913.664 282.325C912.658 281.736 911.867 280.886 911.292 279.775C910.716 278.657 910.428 277.337 910.428 275.815C910.428 274.287 910.716 272.967 911.292 271.856C911.874 270.744 912.671 269.898 913.683 269.315C914.696 268.727 915.84 268.432 917.117 268.432C918.222 268.432 919.221 268.637 920.114 269.048C921.007 269.458 921.731 270.053 922.287 270.834C922.849 271.614 923.197 272.547 923.329 273.632H920.312ZM938.572 275.815C938.572 277.344 938.28 278.663 937.698 279.775C937.116 280.886 936.316 281.736 935.297 282.325C934.285 282.907 933.14 283.198 931.863 283.198C930.58 283.198 929.429 282.907 928.41 282.325C927.391 281.736 926.591 280.886 926.008 279.775C925.426 278.657 925.135 277.337 925.135 275.815C925.135 274.287 925.426 272.967 926.008 271.856C926.591 270.744 927.391 269.898 928.41 269.315C929.429 268.727 930.58 268.432 931.863 268.432C933.14 268.432 934.285 268.727 935.297 269.315C936.316 269.898 937.116 270.744 937.698 271.856C938.28 272.967 938.572 274.287 938.572 275.815ZM928.172 275.815C928.172 276.821 928.321 277.681 928.618 278.395C928.923 279.103 929.353 279.639 929.908 280.003C930.464 280.367 931.116 280.552 931.863 280.559C932.604 280.552 933.249 280.367 933.798 280.003C934.354 279.633 934.781 279.093 935.078 278.386C935.383 277.678 935.535 276.821 935.535 275.815C935.535 274.81 935.383 273.953 935.078 273.245C934.781 272.531 934.354 271.992 933.798 271.628C933.249 271.264 932.604 271.079 931.863 271.072C931.116 271.079 930.464 271.264 929.908 271.628C929.353 271.992 928.923 272.531 928.618 273.245C928.321 273.953 928.172 274.81 928.172 275.815Z" fill="white"/>
<path d="M940.388 271.109L942.513 269.156C942.723 268.954 942.885 268.788 942.999 268.658C943.116 268.524 943.206 268.392 943.269 268.261C943.332 268.128 943.363 267.985 943.363 267.832C943.363 267.661 943.322 267.511 943.24 267.383C943.161 267.252 943.05 267.152 942.905 267.084C942.764 267.016 942.603 266.982 942.423 266.982C942.143 266.979 941.919 267.061 941.753 267.227C941.587 267.391 941.505 267.614 941.508 267.898H940.339C940.339 267.519 940.426 267.187 940.601 266.9C940.778 266.612 941.024 266.39 941.34 266.234C941.659 266.079 942.025 266.002 942.439 266.002C942.856 266.002 943.224 266.076 943.543 266.226C943.861 266.373 944.108 266.579 944.282 266.843C944.459 267.108 944.548 267.41 944.548 267.75C944.548 267.985 944.503 268.209 944.413 268.425C944.323 268.637 944.167 268.874 943.943 269.136C943.722 269.397 943.409 269.712 943.003 270.08L942.104 270.954V270.987H944.63V272H940.396L940.388 271.109Z" fill="white"/>
<defs>
<filter id="filter0_f_737_10390" x="99" y="1" width="477" height="408" filterUnits="userSpaceOnUse" color-interpolation-filters="sRGB">
<feFlood flood-opacity="0" result="BackgroundImageFix"/>
<feBlend mode="normal" in="SourceGraphic" in2="BackgroundImageFix" result="shape"/>
<feGaussianBlur stdDeviation="7" result="effect1_foregroundBlur_737_10390"/>
</filter>
<filter id="filter1_n_737_10390" x="100.242" y="62.2451" width="203.719" height="203.717" filterUnits="userSpaceOnUse" color-interpolation-filters="sRGB">
<feFlood flood-opacity="0" result="BackgroundImageFix"/>
<feBlend mode="normal" in="SourceGraphic" in2="BackgroundImageFix" result="shape"/>
<feTurbulence type="fractalNoise" baseFrequency="4 4" stitchTiles="stitch" numOctaves="3" result="noise" seed="3413" />
<feColorMatrix in="noise" type="luminanceToAlpha" result="alphaNoise" />
<feComponentTransfer in="alphaNoise" result="coloredNoise1">
<feFuncA type="discrete" tableValues="0 0 0 0 1 1 1 1 1 1 1 1 1 1 1 1 1 1 1 1 1 1 1 1 1 1 1 1 1 1 1 1 1 1 1 1 1 1 1 1 1 1 1 1 1 0 0 0 0 0 0 0 0 0 0 0 0 0 0 0 0 0 0 0 0 0 0 0 0 0 0 0 0 0 0 0 0 0 0 0 0 0 0 0 0 0 0 0 0 0 0 0 0 0 0 0 0 0 0 0 "/>
</feComponentTransfer>
<feComposite operator="in" in2="shape" in="coloredNoise1" result="noise1Clipped" />
<feFlood flood-color="rgba(105, 105, 105, 0.19)" result="color1Flood" />
<feComposite operator="in" in2="noise1Clipped" in="color1Flood" result="color1" />
<feMerge result="effect1_noise_737_10390">
<feMergeNode in="shape" />
<feMergeNode in="color1" />
</feMerge>
</filter>
<filter id="filter2_n_737_10390" x="947.594" y="90.5889" width="158.711" height="158.717" filterUnits="userSpaceOnUse" color-interpolation-filters="sRGB">
<feFlood flood-opacity="0" result="BackgroundImageFix"/>
<feBlend mode="normal" in="SourceGraphic" in2="BackgroundImageFix" result="shape"/>
<feTurbulence type="fractalNoise" baseFrequency="4 4" stitchTiles="stitch" numOctaves="3" result="noise" seed="3502" />
<feColorMatrix in="noise" type="luminanceToAlpha" result="alphaNoise" />
<feComponentTransfer in="alphaNoise" result="coloredNoise1">
<feFuncA type="discrete" tableValues="0 0 0 0 1 1 1 1 1 1 1 1 1 1 1 1 1 1 1 1 1 1 1 1 1 1 1 1 1 1 1 1 1 1 1 1 1 1 1 1 1 1 1 1 1 0 0 0 0 0 0 0 0 0 0 0 0 0 0 0 0 0 0 0 0 0 0 0 0 0 0 0 0 0 0 0 0 0 0 0 0 0 0 0 0 0 0 0 0 0 0 0 0 0 0 0 0 0 0 0 "/>
</feComponentTransfer>
<feComposite operator="in" in2="shape" in="coloredNoise1" result="noise1Clipped" />
<feFlood flood-color="rgba(255, 255, 255, 0.25)" result="color1Flood" />
<feComposite operator="in" in2="noise1Clipped" in="color1Flood" result="color1" />
<feMerge result="effect1_noise_737_10390">
<feMergeNode in="shape" />
<feMergeNode in="color1" />
</feMerge>
</filter>
<filter id="filter3_n_737_10390" x="884.539" y="208.543" width="120.719" height="120.719" filterUnits="userSpaceOnUse" color-interpolation-filters="sRGB">
<feFlood flood-opacity="0" result="BackgroundImageFix"/>
<feBlend mode="normal" in="SourceGraphic" in2="BackgroundImageFix" result="shape"/>
<feTurbulence type="fractalNoise" baseFrequency="4 4" stitchTiles="stitch" numOctaves="3" result="noise" seed="8316" />
<feColorMatrix in="noise" type="luminanceToAlpha" result="alphaNoise" />
<feComponentTransfer in="alphaNoise" result="coloredNoise1">
<feFuncA type="discrete" tableValues="1 1 1 1 1 1 1 1 1 1 1 1 1 1 1 1 1 1 1 1 1 1 1 1 1 1 1 1 1 1 1 1 1 1 1 1 1 1 1 1 1 1 1 1 1 1 1 1 1 1 1 0 0 0 0 0 0 0 0 0 0 0 0 0 0 0 0 0 0 0 0 0 0 0 0 0 0 0 0 0 0 0 0 0 0 0 0 0 0 0 0 0 0 0 0 0 0 0 0 0 "/>
</feComponentTransfer>
<feComposite operator="in" in2="shape" in="coloredNoise1" result="noise1Clipped" />
<feFlood flood-color="rgba(0, 0, 0, 0.1)" result="color1Flood" />
<feComposite operator="in" in2="noise1Clipped" in="color1Flood" result="color1" />
<feMerge result="effect1_noise_737_10390">
<feMergeNode in="shape" />
<feMergeNode in="color1" />
</feMerge>
</filter>
<filter id="filter4_n_737_10390" x="-44.2734" y="208.531" width="120.742" height="120.742" filterUnits="userSpaceOnUse" color-interpolation-filters="sRGB">
<feFlood flood-opacity="0" result="BackgroundImageFix"/>
<feBlend mode="normal" in="SourceGraphic" in2="BackgroundImageFix" result="shape"/>
<feTurbulence type="fractalNoise" baseFrequency="4 4" stitchTiles="stitch" numOctaves="3" result="noise" seed="8316" />
<feColorMatrix in="noise" type="luminanceToAlpha" result="alphaNoise" />
<feComponentTransfer in="alphaNoise" result="coloredNoise1">
<feFuncA type="discrete" tableValues="1 1 1 1 1 1 1 1 1 1 1 1 1 1 1 1 1 1 1 1 1 1 1 1 1 1 1 1 1 1 1 1 1 1 1 1 1 1 1 1 1 1 1 1 1 1 1 1 1 1 1 0 0 0 0 0 0 0 0 0 0 0 0 0 0 0 0 0 0 0 0 0 0 0 0 0 0 0 0 0 0 0 0 0 0 0 0 0 0 0 0 0 0 0 0 0 0 0 0 0 "/>
</feComponentTransfer>
<feComposite operator="in" in2="shape" in="coloredNoise1" result="noise1Clipped" />
<feFlood flood-color="rgba(0, 0, 0, 0.1)" result="color1Flood" />
<feComposite operator="in" in2="noise1Clipped" in="color1Flood" result="color1" />
<feMerge result="effect1_noise_737_10390">
<feMergeNode in="shape" />
<feMergeNode in="color1" />
</feMerge>
</filter>
<filter id="filter5_n_737_10390" x="1061.98" y="182.982" width="199.758" height="199.764" filterUnits="userSpaceOnUse" color-interpolation-filters="sRGB">
<feFlood flood-opacity="0" result="BackgroundImageFix"/>
<feBlend mode="normal" in="SourceGraphic" in2="BackgroundImageFix" result="shape"/>
<feTurbulence type="fractalNoise" baseFrequency="4 4" stitchTiles="stitch" numOctaves="3" result="noise" seed="3413" />
<feColorMatrix in="noise" type="luminanceToAlpha" result="alphaNoise" />
<feComponentTransfer in="alphaNoise" result="coloredNoise1">
<feFuncA type="discrete" tableValues="0 0 0 0 1 1 1 1 1 1 1 1 1 1 1 1 1 1 1 1 1 1 1 1 1 1 1 1 1 1 1 1 1 1 1 1 1 1 1 1 1 1 1 1 1 0 0 0 0 0 0 0 0 0 0 0 0 0 0 0 0 0 0 0 0 0 0 0 0 0 0 0 0 0 0 0 0 0 0 0 0 0 0 0 0 0 0 0 0 0 0 0 0 0 0 0 0 0 0 0 "/>
</feComponentTransfer>
<feComposite operator="in" in2="shape" in="coloredNoise1" result="noise1Clipped" />
<feFlood flood-color="rgba(0, 0, 0, 0.19)" result="color1Flood" />
<feComposite operator="in" in2="noise1Clipped" in="color1Flood" result="color1" />
<feMerge result="effect1_noise_737_10390">
<feMergeNode in="shape" />
<feMergeNode in="color1" />
</feMerge>
</filter>
<linearGradient id="paint0_linear_737_10390" x1="1032.83" y1="90" x2="1032.83" y2="239" gradientUnits="userSpaceOnUse">
<stop stop-color="#8693FF"/>
<stop offset="1" stop-color="#3676FF"/>
</linearGradient>
<linearGradient id="paint1_linear_737_10390" x1="944.898" y1="208.543" x2="944.898" y2="329.262" gradientUnits="userSpaceOnUse">
<stop stop-color="#7853F4"/>
<stop offset="1" stop-color="#A5D1FF"/>
</linearGradient>
<linearGradient id="paint2_linear_737_10390" x1="5.55469" y1="221.369" x2="5.55469" y2="342.088" gradientUnits="userSpaceOnUse">
<stop stop-color="#9B90FF"/>
<stop offset="1" stop-color="#53BCF4"/>
</linearGradient>
<clipPath id="clip0_737_10390">
<rect width="114.035" height="114.035" fill="white" transform="translate(162.516 87.9424) rotate(15)"/>
</clipPath>
<clipPath id="clip1_737_10390">
<rect width="23.0625" height="23.0625" fill="white" transform="translate(339.156 249.524) rotate(-7.6955)"/>
</clipPath>
<clipPath id="clip2_737_10390">
<rect width="87" height="141.804" fill="white" transform="translate(0 198)"/>
</clipPath>
<clipPath id="clip3_737_10390">
<rect width="140" height="203.728" fill="white" transform="translate(1060 181)"/>
</clipPath>
<clipPath id="clip4_737_10390">
<rect width="104" height="104" fill="white" transform="translate(1097.76 236.021) rotate(-12.9295)"/>
</clipPath>
</defs>
</svg>
