<svg width="20" height="20" viewBox="0 0 20 20" fill="none" xmlns="http://www.w3.org/2000/svg">
<mask id="mask0_267_3207" style="mask-type:alpha" maskUnits="userSpaceOnUse" x="0" y="0" width="20" height="20">
<rect width="20" height="20" fill="#D9D9D9"/>
</mask>
<g mask="url(#mask0_267_3207)">
<path d="M14.2284 13.4118C14.2284 14.5686 13.8264 15.5531 13.0226 16.3652C12.2187 17.1773 11.2395 17.5833 10.0851 17.5833C8.91464 17.5833 7.93012 17.1604 7.13151 16.3145C6.3329 15.4688 5.93359 14.4527 5.93359 13.266V5.37808C5.93359 4.55545 6.21887 3.85621 6.78943 3.28038C7.35984 2.70454 8.05637 2.41663 8.87901 2.41663C9.71554 2.41663 10.4156 2.7219 10.9792 3.33246C11.5428 3.94302 11.8246 4.6735 11.8246 5.52392V12.9279C11.8246 13.4107 11.6564 13.8233 11.3201 14.1658C10.9837 14.5082 10.5737 14.6793 10.0903 14.6793C9.59484 14.6793 9.17887 14.5014 8.84234 14.1456C8.50582 13.7898 8.33755 13.3561 8.33755 12.8445V5.32058H9.42068V12.9279C9.42068 13.1151 9.48394 13.2733 9.61047 13.4025C9.737 13.5316 9.89387 13.5962 10.0811 13.5962C10.2682 13.5962 10.425 13.5316 10.5515 13.4025C10.678 13.2733 10.7413 13.1151 10.7413 12.9279V5.37017C10.7466 4.85197 10.5676 4.41072 10.2042 4.04642C9.84089 3.68211 9.39783 3.49996 8.87505 3.49996C8.35477 3.49996 7.91498 3.69038 7.55568 4.07121C7.19651 4.45218 7.01693 4.9017 7.01693 5.41975V13.4118C7.0222 14.2666 7.32186 14.9914 7.91589 15.5864C8.50991 16.1816 9.23394 16.4861 10.088 16.5C10.9416 16.5138 11.6672 16.2059 12.2648 15.576C12.8623 14.9463 13.1557 14.1902 13.1451 13.3077V5.32058H14.2284V13.4118Z" fill="#1C1B1F"/>
</g>
</svg>
